<svg width="32" height="32" viewBox="0 0 32 32" fill="none" xmlns="http://www.w3.org/2000/svg">
  <!-- Background circle -->
  <circle cx="16" cy="16" r="15" fill="#2563eb" stroke="#1d4ed8" stroke-width="2"/>
  
  <!-- Site/Management icon - simplified building/gear combination -->
  <g fill="white">
    <!-- Building structure -->
    <rect x="8" y="12" width="4" height="8" rx="1"/>
    <rect x="14" y="10" width="4" height="10" rx="1"/>
    <rect x="20" y="8" width="4" height="12" rx="1"/>
    
    <!-- Windows -->
    <rect x="9" y="14" width="2" height="2" fill="#2563eb"/>
    <rect x="15" y="12" width="2" height="2" fill="#2563eb"/>
    <rect x="21" y="10" width="2" height="2" fill="#2563eb"/>
    
    <!-- Management gear icon overlay -->
    <circle cx="16" cy="24" r="3" fill="none" stroke="white" stroke-width="1.5"/>
    <circle cx="16" cy="24" r="1" fill="white"/>
    <path d="M16 21v1.5M16 25.5v1.5M19 24h1.5M11.5 24H13M18.5 20.5l1-1M12.5 27.5l1-1M18.5 27.5l-1-1M12.5 20.5l-1-1" stroke="white" stroke-width="1" stroke-linecap="round"/>
  </g>
</svg>
